<?xml version="1.0" encoding="UTF-8" standalone="no"?>
<svg
   xmlns:dc="http://purl.org/dc/elements/1.1/"
   xmlns:cc="http://creativecommons.org/ns#"
   xmlns:rdf="http://www.w3.org/1999/02/22-rdf-syntax-ns#"
   xmlns:svg="http://www.w3.org/2000/svg"
   xmlns="http://www.w3.org/2000/svg"
   xmlns:xlink="http://www.w3.org/1999/xlink"
   version="1.1"
   id="svg3646"
   height="24in"
   width="12in">
  <metadata
     id="metadata3876">
    <rdf:RDF>
      <cc:Work
         rdf:about="">
        <dc:format>image/svg+xml</dc:format>
        <dc:type
           rdf:resource="http://purl.org/dc/dcmitype/StillImage" />
        <dc:title></dc:title>
      </cc:Work>
    </rdf:RDF>
  </metadata>
  <desc
     id="desc3648">F:\Documents\SumoBot 2017\Final Base 2 with just cutouts.dxf - scale = 1.000000, origin = (0.000000, 0.000000), auto = False</desc>
  <defs
     id="defs3650">
    <marker
       orient="auto"
       id="DistanceX"
       style="overflow:visible"
       refX="0"
       refY="0">
      <path
         id="path3653"
         d="M 3,-3 -3,3 M 0,-5 0,5"
         style="stroke:#000000;stroke-width:0.5" />
    </marker>
    <pattern
       id="Hatch"
       x="0"
       y="0"
       patternUnits="userSpaceOnUse"
       width="8"
       height="8">
      <path
         id="path3656"
         d="M8 4 l-4,4"
         stroke-width="0.25"
         stroke="#000000"
         linecap="square" />
      <path
         id="path3658"
         d="M6 2 l-4,4"
         stroke-width="0.25"
         stroke="#000000"
         linecap="square" />
      <path
         id="path3660"
         d="M4 0 l-4,4"
         stroke-width="0.25"
         stroke="#000000"
         linecap="square" />
    </pattern>
    <symbol
       id="*Model_Space" />
    <symbol
       id="*Paper_Space" />
    <symbol
       id="*Paper_Space0" />
    <symbol
       id="*U1" />
    <symbol
       id="*U3" />
    <symbol
       id="*U4">
      <use
         height="100%"
         width="100%"
         id="use3668"
         xlink:href="#*U3"
         x="-784.84253"
         y="-1775.1969" />
      <use
         height="100%"
         width="100%"
         id="use3670"
         xlink:href="#*U3"
         x="-424.28275"
         y="-2399.7048" />
      <use
         height="100%"
         width="100%"
         id="use3672"
         xlink:href="#*U3"
         x="-1145.4023"
         y="-2399.7048" />
    </symbol>
    <symbol
       id="*U6" />
    <symbol
       id="*U8">
      <use
         height="100%"
         width="100%"
         id="use3676"
         xlink:href="#*U6"
         x="-784.84253"
         y="-1775.1969" />
      <use
         height="100%"
         width="100%"
         id="use3678"
         xlink:href="#*U6"
         x="-424.28275"
         y="-2399.7048" />
      <use
         height="100%"
         width="100%"
         id="use3680"
         xlink:href="#*U6"
         x="-1145.4023"
         y="-2399.7048" />
    </symbol>
    <symbol
       id="*U9" />
    <symbol
       id="*U10">
      <use
         height="100%"
         width="100%"
         id="use3684"
         xlink:href="#*U9"
         x="733.46454"
         y="-3901.1812" />
      <use
         height="100%"
         width="100%"
         id="use3686"
         xlink:href="#*U9"
         x="897.63434"
         y="-4185.5317" />
      <use
         height="100%"
         width="100%"
         id="use3688"
         xlink:href="#*U9"
         x="569.2948"
         y="-4185.5317" />
    </symbol>
    <symbol
       id="*U11" />
    <symbol
       id="*U12">
      <use
         height="100%"
         width="100%"
         id="use3692"
         xlink:href="#*U11"
         x="-738.77954"
         y="-5807.4805" />
      <use
         height="100%"
         width="100%"
         id="use3694"
         xlink:href="#*U11"
         x="-540.85522"
         y="-6150.2954" />
      <use
         height="100%"
         width="100%"
         id="use3696"
         xlink:href="#*U11"
         x="-936.70386"
         y="-6150.2954" />
    </symbol>
    <symbol
       id="*U13" />
    <symbol
       id="*U14">
      <use
         height="100%"
         width="100%"
         id="use3700"
         xlink:href="#*U13"
         x="-738.77954"
         y="-5754.3306" />
      <use
         height="100%"
         width="100%"
         id="use3702"
         xlink:href="#*U13"
         x="-494.82629"
         y="-6176.8701" />
      <use
         height="100%"
         width="100%"
         id="use3704"
         xlink:href="#*U13"
         x="-982.73273"
         y="-6176.8701" />
    </symbol>
    <symbol
       id="*U15" />
    <symbol
       id="*U16">
      <use
         height="100%"
         width="100%"
         id="use3708"
         xlink:href="#*U15"
         x="-738.77954"
         y="-5674.6064" />
      <use
         height="100%"
         width="100%"
         id="use3710"
         xlink:href="#*U15"
         x="-425.78296"
         y="-6216.7324" />
      <use
         height="100%"
         width="100%"
         id="use3712"
         xlink:href="#*U15"
         x="-1051.7761"
         y="-6216.7324" />
    </symbol>
    <symbol
       id="*U17" />
    <symbol
       id="*U18">
      <use
         height="100%"
         width="100%"
         id="use3716"
         xlink:href="#*U17"
         x="-738.77954"
         y="-5756.1025" />
      <use
         height="100%"
         width="100%"
         id="use3718"
         xlink:href="#*U17"
         x="-496.3606"
         y="-6175.9844" />
      <use
         height="100%"
         width="100%"
         id="use3720"
         xlink:href="#*U17"
         x="-981.19843"
         y="-6175.9844" />
    </symbol>
    <symbol
       id="*U19" />
    <symbol
       id="*U20">
      <use
         height="100%"
         width="100%"
         id="use3724"
         xlink:href="#*U19"
         x="-738.77954"
         y="-5690.5513" />
      <use
         height="100%"
         width="100%"
         id="use3726"
         xlink:href="#*U19"
         x="-439.59161"
         y="-6208.7598" />
      <use
         height="100%"
         width="100%"
         id="use3728"
         xlink:href="#*U19"
         x="-1037.9674"
         y="-6208.7598" />
    </symbol>
    <symbol
       id="*U21" />
    <symbol
       id="*U23">
      <use
         height="100%"
         width="100%"
         id="use3732"
         xlink:href="#*U21"
         x="-738.77954"
         y="-5690.5513" />
      <use
         height="100%"
         width="100%"
         id="use3734"
         xlink:href="#*U21"
         x="-439.59161"
         y="-6208.7598" />
      <use
         height="100%"
         width="100%"
         id="use3736"
         xlink:href="#*U21"
         x="-1037.9674"
         y="-6208.7598" />
    </symbol>
    <symbol
       id="*U24" />
    <symbol
       id="*U26">
      <use
         height="100%"
         width="100%"
         id="use3740"
         xlink:href="#*U24"
         x="-738.77954"
         y="-5690.5513" />
      <use
         height="100%"
         width="100%"
         id="use3742"
         xlink:href="#*U24"
         x="-439.59161"
         y="-6208.7598" />
      <use
         height="100%"
         width="100%"
         id="use3744"
         xlink:href="#*U24"
         x="-1037.9674"
         y="-6208.7598" />
    </symbol>
    <symbol
       id="*U27" />
    <symbol
       id="*U28">
      <use
         height="100%"
         width="100%"
         id="use3748"
         xlink:href="#*U27"
         x="-738.77954"
         y="-6362.0078" />
      <use
         height="100%"
         width="100%"
         id="use3750"
         xlink:href="#*U27"
         x="-1021.0901"
         y="-5873.0317" />
      <use
         height="100%"
         width="100%"
         id="use3752"
         xlink:href="#*U27"
         x="-456.46887"
         y="-5873.0317" />
    </symbol>
    <symbol
       id="*U29" />
    <symbol
       id="*U30">
      <use
         height="100%"
         width="100%"
         id="use3756"
         xlink:href="#*U29"
         x="-738.77954"
         y="-6362.0078" />
      <use
         height="100%"
         width="100%"
         id="use3758"
         xlink:href="#*U29"
         x="-1021.0901"
         y="-5873.0317" />
      <use
         height="100%"
         width="100%"
         id="use3760"
         xlink:href="#*U29"
         x="-456.46887"
         y="-5873.0317" />
    </symbol>
    <symbol
       id="*U31" />
    <symbol
       id="*U32">
      <use
         height="100%"
         width="100%"
         id="use3764"
         xlink:href="#*U31"
         x="-2407.6772"
         y="-6347.8345" />
      <use
         height="100%"
         width="100%"
         id="use3766"
         xlink:href="#*U31"
         x="-2677.7134"
         y="-5880.1182" />
      <use
         height="100%"
         width="100%"
         id="use3768"
         xlink:href="#*U31"
         x="-2137.6409"
         y="-5880.1182" />
    </symbol>
    <symbol
       id="*U33" />
    <symbol
       id="*U35">
      <use
         height="100%"
         width="100%"
         id="use3772"
         xlink:href="#*U33"
         x="-2407.6772"
         y="-6347.8345" />
      <use
         height="100%"
         width="100%"
         id="use3774"
         xlink:href="#*U33"
         x="-2677.7134"
         y="-5880.1182" />
      <use
         height="100%"
         width="100%"
         id="use3776"
         xlink:href="#*U33"
         x="-2137.6409"
         y="-5880.1182" />
    </symbol>
    <symbol
       id="*U36" />
    <symbol
       id="*U38">
      <use
         height="100%"
         width="100%"
         id="use3780"
         xlink:href="#*U36"
         x="-738.77954"
         y="-5690.5513" />
      <use
         height="100%"
         width="100%"
         id="use3782"
         xlink:href="#*U36"
         x="-439.59161"
         y="-6208.7598" />
      <use
         height="100%"
         width="100%"
         id="use3784"
         xlink:href="#*U36"
         x="-1037.9674"
         y="-6208.7598" />
    </symbol>
    <symbol
       id="*U39">
      <path
         id="path3787"
         d="m 14.173228,1052.3622 a 14.173228,14.173228 0 1 0 -28.346456,0 14.173228,14.173228 0 1 0 28.346456,0 z"
         style="fill:none;stroke:#000000" />
    </symbol>
    <symbol
       id="*U40">
      <use
         height="100%"
         width="100%"
         id="use3790"
         xlink:href="#*U39"
         x="1374.8031"
         y="-6859.8423" />
      <use
         height="100%"
         width="100%"
         id="use3792"
         xlink:href="#*U39"
         x="1104.7668"
         y="-6392.126" />
      <use
         height="100%"
         width="100%"
         id="use3794"
         xlink:href="#*U39"
         x="1644.8395"
         y="-6392.126" />
    </symbol>
    <symbol
       id="*U41">
      <path
         id="path3797"
         d="m 113.38583,999.2126 0,106.2992 -226.77166,0 0,-106.2992 226.77166,0 z"
         style="fill:none;stroke:#000000" />
    </symbol>
    <symbol
       id="*U42">
      <use
         height="100%"
         width="100%"
         id="use3800"
         xlink:href="#*U41"
         x="1374.8031"
         y="-5362.7954" />
      <use
         height="100%"
         width="100%"
         id="use3802"
         xlink:href="#*U41"
         x="1680.1283"
         y="-5891.6338" />
      <use
         height="100%"
         width="100%"
         id="use3804"
         xlink:href="#*U41"
         x="1069.478"
         y="-5891.6338" />
    </symbol>
    <symbol
       id="*U43">
      <path
         id="path3807"
         d="m 14.173228,1052.3622 a 14.173228,14.173228 0 1 0 -28.346456,0 14.173228,14.173228 0 1 0 28.346456,0 z"
         style="fill:none;stroke:#000000" />
    </symbol>
    <symbol
       id="*U44">
      <use
         height="100%"
         width="100%"
         id="use3810"
         xlink:href="#*U43"
         x="1374.8031"
         y="-6027.1655" />
      <use
         height="100%"
         width="100%"
         id="use3812"
         xlink:href="#*U43"
         x="1104.7668"
         y="-5559.4487" />
      <use
         height="100%"
         width="100%"
         id="use3814"
         xlink:href="#*U43"
         x="1644.8395"
         y="-5559.4487" />
    </symbol>
    <symbol
       id="*U45">
      <path
         id="path3817"
         d="m 243.60236,1052.3622 -487.20472,0"
         style="fill:none;stroke:#000000" />
    </symbol>
    <symbol
       id="*U46">
      <use
         height="100%"
         width="100%"
         id="use3820"
         xlink:href="#*U45"
         x="492.51968"
         y="-354.33072" />
      <use
         height="100%"
         width="100%"
         id="use3822"
         xlink:href="#*U45"
         x="629.07214"
         y="-590.84644" />
      <use
         height="100%"
         width="100%"
         id="use3824"
         xlink:href="#*U45"
         x="355.96725"
         y="-590.84644" />
    </symbol>
  </defs>
  <g
     transform="translate(0,1107.6378)"
     id="g3826">
    <path
       id="path3828"
       d="m 728.14961,-237.40157 a 354.33071,354.33071 0 1 0 -708.661421,0 354.33071,354.33071 0 1 0 708.661421,0 z"
       style="fill:none;stroke:#000000" />
    <path
       id="path3830"
       d="m 903.54331,595.27559 a 442.91339,442.91339 0 1 0 -885.826775,0 442.91339,442.91339 0 1 0 885.826775,0 z"
       style="fill:none;stroke:#000000" />
    <path
       id="path3832"
       d="m 574.01575,894.68504 0,106.29926 -226.77166,0 0,-106.29926 226.77166,0 z"
       style="fill:none;stroke:#000000" />
    <path
       id="path3834"
       d="m 663.2332,347.37586 92.05782,-53.14961 113.38582,196.39002 -92.05782,53.1496 L 663.2332,347.37586 Z"
       style="fill:none;stroke:#000000" />
    <path
       id="path3836"
       d="M 144.64082,543.76587 52.583001,490.61627 165.96883,294.22625 258.02665,347.37586 144.64082,543.76587 Z"
       style="fill:none;stroke:#000000" />
    <path
       id="path3838"
       d="m 474.80315,283.46457 a 14.17323,14.17323 0 1 0 -28.34646,0 14.17323,14.17323 0 1 0 28.34646,0 z"
       style="fill:none;stroke:#000000" />
    <path
       id="path3840"
       d="m 204.76688,751.1811 a 14.17323,14.17323 0 1 0 -28.34646,0 14.17323,14.17323 0 1 0 28.34646,0 z"
       style="fill:none;stroke:#000000" />
    <path
       id="path3842"
       d="m 744.83942,751.1811 a 14.17323,14.17323 0 1 0 -28.34646,0 14.17323,14.17323 0 1 0 28.34646,0 z"
       style="fill:none;stroke:#000000" />
    <path
       id="path3844"
       d="m 387.99213,-549.2126 a 14.17323,14.17323 0 1 0 -28.34646,0 14.17323,14.17323 0 1 0 28.34646,0 z"
       style="fill:none;stroke:#000000" />
    <path
       id="path3846"
       d="m 117.95586,-81.496063 a 14.173229,14.173229 0 1 0 -28.346458,0 14.173229,14.173229 0 1 0 28.346458,0 z"
       style="fill:none;stroke:#000000" />
    <path
       id="path3848"
       d="m 658.02839,-81.496063 a 14.173229,14.173229 0 1 0 -28.34645,0 14.173229,14.173229 0 1 0 28.34645,0 z"
       style="fill:none;stroke:#000000" />
    <path
       id="path3850"
       d="M 544.64257,-650.06965 288.77953,-1093.2374 a 14.173228,14.173228 0 0 1 -14.17323,0 L 18.74326,-650.06965 a 14.173228,14.173228 0 0 1 7.086614,12.27437 l 511.726076,0 a 14.173228,14.173228 0 0 1 7.08662,-12.27437 z"
       style="fill:none;stroke:#000000" />
    <path
       id="path3852"
       d="m 0,1052.3622 0,-2160 1080,0 0,2160 -1080,0 z"
       style="fill:none;stroke:#000000" />
    <path
       id="path3854"
       d="m 644.88189,-912.40157 -70.86614,0 0,70.86614 70.86614,-70.86614"
       style="fill:none;stroke:#000000" />
    <path
       id="path3856"
       d="m 644.88189,-1008.0709 -70.86614,0 0,70.86618 70.86614,-70.86618"
       style="fill:none;stroke:#000000" />
    <path
       id="path3858"
       d="m 1020.4724,-1077.1654 -70.8661,0 0,2110.0394 70.8661,0 0,-2110.0394 z"
       style="fill:none;stroke:#000000" />
    <path
       id="path3860"
       d="m 644.88189,-721.06299 -70.86614,0 0,70.86614 70.86614,-70.86614"
       style="fill:none;stroke:#000000" />
    <path
       id="path3862"
       d="m 644.88189,-816.73228 -70.86614,0 0,70.86614 70.86614,-70.86614"
       style="fill:none;stroke:#000000" />
    <path
       id="path3864"
       d="m 625.3937,-754.72441 70.86614,0 0,-70.86614 -70.86614,70.86614"
       style="fill:none;stroke:#000000" />
    <path
       id="path3866"
       d="m 625.3937,-659.05512 70.86614,0 0,-70.86614 -70.86614,70.86614"
       style="fill:none;stroke:#000000" />
    <path
       id="path3868"
       d="m 625.3937,-946.06299 70.86614,0 0,-70.86611 -70.86614,70.86611"
       style="fill:none;stroke:#000000" />
    <path
       id="path3870"
       d="m 625.3937,-850.3937 70.86614,0 0,-70.86614 -70.86614,70.86614"
       style="fill:none;stroke:#000000" />
    <path
       id="path3872"
       d="m 919.48819,-1077.1654 -141.73228,0 0,1270.27564 141.73228,0 0,-1270.27564 z"
       style="fill:none;stroke:#000000" />
  </g>
</svg>
