<?xml version="1.0" encoding="UTF-8" standalone="no"?>
<svg
   xmlns:dc="http://purl.org/dc/elements/1.1/"
   xmlns:cc="http://creativecommons.org/ns#"
   xmlns:rdf="http://www.w3.org/1999/02/22-rdf-syntax-ns#"
   xmlns:svg="http://www.w3.org/2000/svg"
   xmlns="http://www.w3.org/2000/svg"
   xmlns:xlink="http://www.w3.org/1999/xlink"
   xmlns:sodipodi="http://sodipodi.sourceforge.net/DTD/sodipodi-0.dtd"
   xmlns:inkscape="http://www.inkscape.org/namespaces/inkscape"
   width="12in"
   height="24in"
   id="svg3336"
   version="1.1"
   inkscape:version="0.91 r13725"
   sodipodi:docname="Final Base 1 with just cutouts.svg"
   shape-rendering="crispEdges">
  <metadata
     id="metadata3532">
    <rdf:RDF>
      <cc:Work
         rdf:about="">
        <dc:format>image/svg+xml</dc:format>
        <dc:type
           rdf:resource="http://purl.org/dc/dcmitype/StillImage" />
        <dc:title></dc:title>
      </cc:Work>
    </rdf:RDF>
  </metadata>
  <sodipodi:namedview
     pagecolor="#ffffff"
     bordercolor="#666666"
     borderopacity="1"
     objecttolerance="10"
     gridtolerance="10"
     guidetolerance="10"
     inkscape:pageopacity="0"
     inkscape:pageshadow="2"
     inkscape:window-width="1920"
     inkscape:window-height="1017"
     id="namedview3530"
     showgrid="false"
     inkscape:zoom="0.80580623"
     inkscape:cx="372.04724"
     inkscape:cy="2114.6523"
     inkscape:window-x="1672"
     inkscape:window-y="-8"
     inkscape:window-maximized="1"
     inkscape:current-layer="g3506"
     units="in" />
  <desc
     id="desc3338">F:\Documents\SumoBot 2017\Final Base 1 with just cutouts.dxf - scale = 1.000000, origin = (0.000000, 0.000000), auto = False</desc>
  <defs
     id="defs3340">
    <marker
       refY="0"
       refX="0"
       style="overflow:visible"
       id="DistanceX"
       orient="auto">
      <path
         style="stroke:#000000;stroke-width:0.5"
         d="M 3,-3 -3,3 M 0,-5 0,5"
         id="path3343"
         inkscape:connector-curvature="0" />
    </marker>
    <pattern
       height="8"
       width="8"
       patternUnits="userSpaceOnUse"
       y="0"
       x="0"
       id="Hatch">
      <path
         linecap="square"
         stroke="#000000"
         stroke-width="0.25"
         d="M8 4 l-4,4"
         id="path3346" />
      <path
         linecap="square"
         stroke="#000000"
         stroke-width="0.25"
         d="M6 2 l-4,4"
         id="path3348" />
      <path
         linecap="square"
         stroke="#000000"
         stroke-width="0.25"
         d="M4 0 l-4,4"
         id="path3350" />
    </pattern>
    <symbol
       id="*Model_Space" />
    <symbol
       id="*Paper_Space" />
    <symbol
       id="*Paper_Space0" />
    <symbol
       id="*U1" />
    <symbol
       id="*U3" />
    <symbol
       id="*U4">
      <use
         y="-1775.1969"
         x="-784.84253"
         xlink:href="#*U3"
         id="use3358"
         width="100%"
         height="100%" />
      <use
         y="-2399.7048"
         x="-424.28275"
         xlink:href="#*U3"
         id="use3360"
         width="100%"
         height="100%" />
      <use
         y="-2399.7048"
         x="-1145.4023"
         xlink:href="#*U3"
         id="use3362"
         width="100%"
         height="100%" />
    </symbol>
    <symbol
       id="*U6" />
    <symbol
       id="*U8">
      <use
         y="-1775.1969"
         x="-784.84253"
         xlink:href="#*U6"
         id="use3366"
         width="100%"
         height="100%" />
      <use
         y="-2399.7048"
         x="-424.28275"
         xlink:href="#*U6"
         id="use3368"
         width="100%"
         height="100%" />
      <use
         y="-2399.7048"
         x="-1145.4023"
         xlink:href="#*U6"
         id="use3370"
         width="100%"
         height="100%" />
    </symbol>
    <symbol
       id="*U9" />
    <symbol
       id="*U10">
      <use
         y="-3901.1812"
         x="733.46454"
         xlink:href="#*U9"
         id="use3374"
         width="100%"
         height="100%" />
      <use
         y="-4185.5317"
         x="897.63434"
         xlink:href="#*U9"
         id="use3376"
         width="100%"
         height="100%" />
      <use
         y="-4185.5317"
         x="569.2948"
         xlink:href="#*U9"
         id="use3378"
         width="100%"
         height="100%" />
    </symbol>
    <symbol
       id="*U11" />
    <symbol
       id="*U12">
      <use
         y="-5807.4805"
         x="-738.77954"
         xlink:href="#*U11"
         id="use3382"
         width="100%"
         height="100%" />
      <use
         y="-6150.2954"
         x="-540.85522"
         xlink:href="#*U11"
         id="use3384"
         width="100%"
         height="100%" />
      <use
         y="-6150.2954"
         x="-936.70386"
         xlink:href="#*U11"
         id="use3386"
         width="100%"
         height="100%" />
    </symbol>
    <symbol
       id="*U13" />
    <symbol
       id="*U14">
      <use
         y="-5754.3306"
         x="-738.77954"
         xlink:href="#*U13"
         id="use3390"
         width="100%"
         height="100%" />
      <use
         y="-6176.8701"
         x="-494.82629"
         xlink:href="#*U13"
         id="use3392"
         width="100%"
         height="100%" />
      <use
         y="-6176.8701"
         x="-982.73273"
         xlink:href="#*U13"
         id="use3394"
         width="100%"
         height="100%" />
    </symbol>
    <symbol
       id="*U15" />
    <symbol
       id="*U16">
      <use
         y="-5674.6064"
         x="-738.77954"
         xlink:href="#*U15"
         id="use3398"
         width="100%"
         height="100%" />
      <use
         y="-6216.7324"
         x="-425.78296"
         xlink:href="#*U15"
         id="use3400"
         width="100%"
         height="100%" />
      <use
         y="-6216.7324"
         x="-1051.7761"
         xlink:href="#*U15"
         id="use3402"
         width="100%"
         height="100%" />
    </symbol>
    <symbol
       id="*U17" />
    <symbol
       id="*U18">
      <use
         y="-5756.1025"
         x="-738.77954"
         xlink:href="#*U17"
         id="use3406"
         width="100%"
         height="100%" />
      <use
         y="-6175.9844"
         x="-496.3606"
         xlink:href="#*U17"
         id="use3408"
         width="100%"
         height="100%" />
      <use
         y="-6175.9844"
         x="-981.19843"
         xlink:href="#*U17"
         id="use3410"
         width="100%"
         height="100%" />
    </symbol>
    <symbol
       id="*U19" />
    <symbol
       id="*U20">
      <use
         y="-5690.5513"
         x="-738.77954"
         xlink:href="#*U19"
         id="use3414"
         width="100%"
         height="100%" />
      <use
         y="-6208.7598"
         x="-439.59161"
         xlink:href="#*U19"
         id="use3416"
         width="100%"
         height="100%" />
      <use
         y="-6208.7598"
         x="-1037.9674"
         xlink:href="#*U19"
         id="use3418"
         width="100%"
         height="100%" />
    </symbol>
    <symbol
       id="*U21" />
    <symbol
       id="*U23">
      <use
         y="-5690.5513"
         x="-738.77954"
         xlink:href="#*U21"
         id="use3422"
         width="100%"
         height="100%" />
      <use
         y="-6208.7598"
         x="-439.59161"
         xlink:href="#*U21"
         id="use3424"
         width="100%"
         height="100%" />
      <use
         y="-6208.7598"
         x="-1037.9674"
         xlink:href="#*U21"
         id="use3426"
         width="100%"
         height="100%" />
    </symbol>
    <symbol
       id="*U24" />
    <symbol
       id="*U26">
      <use
         y="-5690.5513"
         x="-738.77954"
         xlink:href="#*U24"
         id="use3430"
         width="100%"
         height="100%" />
      <use
         y="-6208.7598"
         x="-439.59161"
         xlink:href="#*U24"
         id="use3432"
         width="100%"
         height="100%" />
      <use
         y="-6208.7598"
         x="-1037.9674"
         xlink:href="#*U24"
         id="use3434"
         width="100%"
         height="100%" />
    </symbol>
    <symbol
       id="*U27" />
    <symbol
       id="*U28">
      <use
         y="-6362.0078"
         x="-738.77954"
         xlink:href="#*U27"
         id="use3438"
         width="100%"
         height="100%" />
      <use
         y="-5873.0317"
         x="-1021.0901"
         xlink:href="#*U27"
         id="use3440"
         width="100%"
         height="100%" />
      <use
         y="-5873.0317"
         x="-456.46887"
         xlink:href="#*U27"
         id="use3442"
         width="100%"
         height="100%" />
    </symbol>
    <symbol
       id="*U29" />
    <symbol
       id="*U30">
      <use
         y="-6362.0078"
         x="-738.77954"
         xlink:href="#*U29"
         id="use3446"
         width="100%"
         height="100%" />
      <use
         y="-5873.0317"
         x="-1021.0901"
         xlink:href="#*U29"
         id="use3448"
         width="100%"
         height="100%" />
      <use
         y="-5873.0317"
         x="-456.46887"
         xlink:href="#*U29"
         id="use3450"
         width="100%"
         height="100%" />
    </symbol>
    <symbol
       id="*U31" />
    <symbol
       id="*U32">
      <use
         y="-6347.8345"
         x="-2407.6772"
         xlink:href="#*U31"
         id="use3454"
         width="100%"
         height="100%" />
      <use
         y="-5880.1182"
         x="-2677.7134"
         xlink:href="#*U31"
         id="use3456"
         width="100%"
         height="100%" />
      <use
         y="-5880.1182"
         x="-2137.6409"
         xlink:href="#*U31"
         id="use3458"
         width="100%"
         height="100%" />
    </symbol>
    <symbol
       id="*U33" />
    <symbol
       id="*U35">
      <use
         y="-6347.8345"
         x="-2407.6772"
         xlink:href="#*U33"
         id="use3462"
         width="100%"
         height="100%" />
      <use
         y="-5880.1182"
         x="-2677.7134"
         xlink:href="#*U33"
         id="use3464"
         width="100%"
         height="100%" />
      <use
         y="-5880.1182"
         x="-2137.6409"
         xlink:href="#*U33"
         id="use3466"
         width="100%"
         height="100%" />
    </symbol>
    <symbol
       id="*U36" />
    <symbol
       id="*U38">
      <use
         y="-5690.5513"
         x="-738.77954"
         xlink:href="#*U36"
         id="use3470"
         width="100%"
         height="100%" />
      <use
         y="-6208.7598"
         x="-439.59161"
         xlink:href="#*U36"
         id="use3472"
         width="100%"
         height="100%" />
      <use
         y="-6208.7598"
         x="-1037.9674"
         xlink:href="#*U36"
         id="use3474"
         width="100%"
         height="100%" />
    </symbol>
    <symbol
       id="*U39">
      <path
         style="fill:none;stroke:#000000"
         d="m 14.173228,1052.3622 a 14.173228,14.173228 0 1 0 -28.346456,0 14.173228,14.173228 0 1 0 28.346456,0 z"
         id="path3477"
         inkscape:connector-curvature="0" />
    </symbol>
    <symbol
       id="*U40">
      <use
         y="-6859.8423"
         x="1374.8031"
         xlink:href="#*U39"
         id="use3480"
         width="100%"
         height="100%" />
      <use
         y="-6392.126"
         x="1104.7668"
         xlink:href="#*U39"
         id="use3482"
         width="100%"
         height="100%" />
      <use
         y="-6392.126"
         x="1644.8395"
         xlink:href="#*U39"
         id="use3484"
         width="100%"
         height="100%" />
    </symbol>
    <symbol
       id="*U41">
      <path
         style="fill:none;stroke:#000000"
         d="m 113.38583,999.2126 0,106.2992 -226.77166,0 0,-106.2992 226.77166,0 z"
         id="path3487"
         inkscape:connector-curvature="0" />
    </symbol>
    <symbol
       id="*U42">
      <use
         y="-5362.7954"
         x="1374.8031"
         xlink:href="#*U41"
         id="use3490"
         width="100%"
         height="100%" />
      <use
         y="-5891.6338"
         x="1680.1283"
         xlink:href="#*U41"
         id="use3492"
         width="100%"
         height="100%" />
      <use
         y="-5891.6338"
         x="1069.478"
         xlink:href="#*U41"
         id="use3494"
         width="100%"
         height="100%" />
    </symbol>
    <symbol
       id="*U43">
      <path
         style="fill:none;stroke:#000000"
         d="m 14.173228,1052.3622 a 14.173228,14.173228 0 1 0 -28.346456,0 14.173228,14.173228 0 1 0 28.346456,0 z"
         id="path3497"
         inkscape:connector-curvature="0" />
    </symbol>
    <symbol
       id="*U44">
      <use
         y="-6027.1655"
         x="1374.8031"
         xlink:href="#*U43"
         id="use3500"
         width="100%"
         height="100%" />
      <use
         y="-5559.4487"
         x="1104.7668"
         xlink:href="#*U43"
         id="use3502"
         width="100%"
         height="100%" />
      <use
         y="-5559.4487"
         x="1644.8395"
         xlink:href="#*U43"
         id="use3504"
         width="100%"
         height="100%" />
    </symbol>
  </defs>
  <g
     inkscape:label="0"
     inkscape:groupmode="layer"
     id="g3506"
     transform="translate(0,1107.6378)">
    <path
       style="fill:none;stroke:#000000"
       d="m 846.85039,-292.32283 a 354.33071,354.33071 0 1 0 -708.66141,0 354.33071,354.33071 0 1 0 708.66141,0 z"
       id="path3508"
       inkscape:connector-curvature="0" />
    <path
       style="fill:none;stroke:#000000"
       d="m 935.43307,540.35433 a 442.91339,442.91339 0 1 0 -885.826771,0 442.91339,442.91339 0 1 0 885.826771,0 z"
       id="path3510"
       inkscape:connector-curvature="0" />
    <path
       style="fill:none;stroke:#000000"
       d="m 605.90551,839.76378 0,106.29921 -226.77165,0 0,-106.29921 226.77165,0 z"
       id="path3512"
       inkscape:connector-curvature="0" />
    <path
       style="fill:none;stroke:#000000"
       d="m 695.12296,292.4546 92.05782,-53.14961 113.38583,196.39002 -92.05782,53.1496 L 695.12296,292.4546 Z"
       id="path3514"
       inkscape:connector-curvature="0" />
    <path
       style="fill:none;stroke:#000000"
       d="M 176.53058,488.84461 84.472764,435.69501 197.85859,239.30499 289.91641,292.4546 176.53058,488.84461 Z"
       id="path3516"
       inkscape:connector-curvature="0" />
    <path
       style="fill:none;stroke:#000000"
       d="m 506.69291,228.54331 a 14.173228,14.173228 0 1 0 -28.34645,0 14.173228,14.173228 0 1 0 28.34645,0 z"
       id="path3518"
       inkscape:connector-curvature="0" />
    <path
       style="fill:none;stroke:#000000"
       d="m 236.65665,696.25984 a 14.17323,14.17323 0 1 0 -28.34646,0 14.17323,14.17323 0 1 0 28.34646,0 z"
       id="path3520"
       inkscape:connector-curvature="0" />
    <path
       style="fill:none;stroke:#000000"
       d="m 776.72918,696.25984 a 14.17323,14.17323 0 1 0 -28.34646,0 14.17323,14.17323 0 1 0 28.34646,0 z"
       id="path3522"
       inkscape:connector-curvature="0" />
    <path
       style="fill:none;stroke:#000000"
       d="m 506.69291,-604.13386 a 14.173228,14.173228 0 1 0 -28.34645,0 14.173228,14.173228 0 1 0 28.34645,0 z"
       id="path3524"
       inkscape:connector-curvature="0" />
    <path
       style="fill:none;stroke:#000000"
       d="m 236.65665,-136.41732 a 14.17323,14.17323 0 1 0 -28.34646,0 14.17323,14.17323 0 1 0 28.34646,0 z"
       id="path3526"
       inkscape:connector-curvature="0" />
    <path
       style="fill:none;stroke:#000000"
       d="m 776.72918,-136.41732 a 14.17323,14.17323 0 1 0 -28.34646,0 14.17323,14.17323 0 1 0 28.34646,0 z"
       id="path3528"
       inkscape:connector-curvature="0" />
  </g>
</svg>
